;<svg
  width="200"
  height="200"
  viewBox="0 0 200 200"
  fill="none"
  xmlns="http://www.w3.org/2000/svg"
>
  <rect width="200" height="200" fill="#F2F2F2" />
  <path
    d="M99.7641 71C83.9034 71 71 83.9034 71 99.7641C71 115.625 83.9034 128.529 99.7641 128.529C115.625 128.529 128.529 115.625 128.529 99.7641C128.529 83.9034 115.625 71 99.7641 71ZM110.186 114.913C104.429 114.913 99.7641 110.247 99.7641 104.492C99.7641 98.737 104.429 94.0724 110.186 94.0724C115.941 94.0724 120.603 98.737 120.603 104.492C120.603 110.248 115.941 114.913 110.186 114.913Z"
    fill="#BDBDBD"
  />
  <path
    d="M111.75 110.551C114.397 110.551 116.544 108.405 116.544 105.757C116.544 103.11 114.397 100.963 111.75 100.963C109.102 100.963 106.956 103.11 106.956 105.757C106.956 108.405 109.102 110.551 111.75 110.551Z"
    fill="#BDBDBD"
  />
</svg>
