;<svg
  width="164"
  height="32"
  viewBox="0 0 164 32"
  fill="none"
  xmlns="http://www.w3.org/2000/svg"
>
  <path
    d="M3.92478 16.2735L4.34038 3.35107H0.25L0.662476 16.2735H3.92478Z"
    fill="white"
  />
  <path
    d="M2.29361 18.5024C1.6499 18.5024 1.10618 18.7169 0.662461 19.149C0.221862 19.578 0 20.1065 0 20.7282C0 21.3686 0.221862 21.9095 0.662461 22.3509C1.10618 22.7923 1.64678 23.0099 2.29361 23.0099C2.90295 23.0099 3.42792 22.7861 3.86852 22.3354C4.31225 21.8877 4.53098 21.3499 4.53098 20.7282C4.53098 20.1065 4.30912 19.578 3.86852 19.1459C3.42792 18.7169 2.90295 18.5024 2.29361 18.5024Z"
    fill="white"
  />
  <path
    d="M22.498 8.02478L20.231 10.28L22.498 12.5353L24.765 10.28L22.498 8.02478Z"
    fill="white"
  />
  <path
    d="M16.9701 8.02478L14.7031 10.28L16.9701 12.5353L19.2371 10.28L16.9701 8.02478Z"
    fill="white"
  />
  <path
    d="M51.7095 10.6096L48.366 11.5982L49.4722 15.6953C49.7315 16.631 49.7128 17.2807 49.4159 17.6475C49.1222 18.0143 48.5878 18.1977 47.8129 18.1977C46.7254 18.1977 46.1817 17.7563 46.1817 16.8766V16.7678V13.3607H42.8913V16.7709V16.8268C42.8913 17.2838 42.7725 17.6289 42.5319 17.8589C42.2913 18.0889 41.8132 18.2039 41.0945 18.2039C39.9883 18.2039 39.4352 17.7283 39.4352 16.774V13.3607H36.1729V16.7709V16.8268C36.1729 17.2683 36.0542 17.6071 35.8136 17.8433C35.573 18.0827 35.0949 18.2008 34.3762 18.2008H33.3544C32.6919 18.2008 32.2388 18.0951 32.0013 17.8838C31.7607 17.6724 31.6138 17.2558 31.5576 16.6341V16.6061L31.2545 13.224L27.7766 13.5535L28.0797 16.9356V16.9916C28.1172 17.4144 28.0015 17.719 27.7328 17.9117C27.4641 18.1045 26.9829 18.2008 26.2829 18.2008H19.6239C16.8241 18.2008 14.9523 18.1635 14.0149 18.092C13.0743 18.0174 12.4025 17.8993 11.9962 17.7345C11.5525 17.5325 11.2775 17.2993 11.1682 17.032C11.0588 16.7678 11.0744 16.3574 11.2244 15.8072L12.3025 11.6541L8.9308 10.6376L7.88086 14.6508C7.49339 16.1523 7.54026 17.5014 8.01836 18.692C8.49645 19.8826 9.36203 20.753 10.6151 21.3032C11.4057 21.6514 12.3431 21.8721 13.4212 21.9622C14.4992 22.0555 16.5679 22.099 19.627 22.099H26.2891C27.7266 22.099 28.914 21.7322 29.8546 20.9986C30.6983 21.6825 31.7794 22.0431 33.0887 22.0897V22.099H34.3887C35.7698 22.099 36.9229 21.6576 37.8447 20.7779C38.729 21.6576 39.8165 22.099 41.107 22.099C42.4882 22.099 43.6225 21.6763 44.5068 20.8338C45.4099 21.6763 46.5161 22.099 47.8223 22.099C49.7378 22.099 51.1971 21.3934 52.2032 19.9821C53.2063 18.5708 53.4157 16.8113 52.8251 14.7037L51.7095 10.6096Z"
    fill="white"
  />
  <path
    d="M80.3141 6.56846L77.7455 4.01318L75.2019 6.56846L77.7455 9.09886L80.3141 6.56846Z"
    fill="white"
  />
  <path
    d="M80.7015 10.6096L77.3298 11.5982L78.436 15.6953C78.6953 16.6496 78.6485 17.3024 78.2985 17.6599C77.9485 18.0174 77.2767 18.1946 76.2799 18.1946H74.3737C73.655 18.1946 72.8863 18.0983 72.0645 17.9055C71.2458 17.7128 69.4897 17.2496 66.7992 16.516L65.7492 20.2276L68.5116 21.1074C69.174 21.3654 69.5146 21.6017 69.5334 21.8224C69.6428 22.6461 69.4084 23.2337 68.8272 23.5818C68.246 23.93 67.0085 24.3248 65.1087 24.7631C62.5651 25.3506 60.8527 24.8501 59.9683 23.2648C59.084 21.6794 59.1934 19.292 60.2996 16.1025L56.9841 14.8093C56.3592 16.5875 56.0061 18.2817 55.9342 19.895C55.8592 21.5084 56.0405 22.9104 56.4717 24.101C56.9029 25.2916 57.5529 26.305 58.4216 27.1381C59.2871 27.9712 60.3527 28.4996 61.6151 28.7204C62.8775 28.9411 64.2993 28.8944 65.8867 28.5836C68.4303 27.9961 70.2771 27.2003 71.427 26.1931C72.577 25.1859 73.1176 23.8088 73.0426 22.0679C73.2582 22.0835 73.6144 22.0928 74.0925 22.0959H76.2767C78.3766 22.0959 79.9703 21.4089 81.0577 20.0349C82.1451 18.6609 82.392 16.8828 81.8045 14.7005L80.7015 10.6096Z"
    fill="white"
  />
  <path
    d="M97.7817 26.1713L100.047 28.4002L102.313 26.1713L100.047 23.9176L97.7817 26.1713Z"
    fill="white"
  />
  <path
    d="M103.31 26.1713L105.547 28.4002L107.841 26.1713L105.547 23.9176L103.31 26.1713Z"
    fill="white"
  />
  <path
    d="M108.393 10.6096L105.05 11.5981L106.128 15.6953C106.387 16.631 106.334 17.2807 105.975 17.6475C105.615 18.0143 104.956 18.1977 104 18.1977H100.047H99.769H98.6909C98.2472 18.1977 97.9316 18.0361 97.7378 17.7159C97.5441 17.3957 97.3285 16.7491 97.0879 15.7761C96.5535 13.6685 95.8629 10.9733 95.0161 7.69373L91.6163 8.62942L93.6599 16.6869L93.7443 17.0164C93.8162 17.3833 93.7349 17.6724 93.4943 17.8837C93.2537 18.0951 92.8225 18.2008 92.1944 18.2008H89.3758C88.6759 18.2008 88.3071 18.0081 88.2696 17.6226C88.2321 17.3646 88.2134 16.9916 88.2134 16.4942H85.0073L85.0354 18.2816C85.0729 19.3634 85.5479 20.2712 86.4572 21.0048C87.3697 21.7384 88.5446 22.1052 89.982 22.1052H91.7226C93.3443 22.1052 94.6599 21.6918 95.6754 20.868C96.466 21.6918 97.4722 22.1052 98.6878 22.1052H99.7658H100.044H103.997C106.059 22.1052 107.647 21.4307 108.75 20.0846C109.856 18.7386 110.121 17.0102 109.55 14.9026L108.393 10.6096Z"
    fill="white"
  />
  <path
    d="M125.086 15.7792C124.827 14.7348 124.268 13.4322 123.399 11.8748C122.533 10.3174 121.874 9.21697 121.424 8.5766C120.971 7.93623 120.599 7.42331 120.306 7.03784L117.459 9.34754L118.315 10.5568C118.868 11.3806 119.499 12.4033 120.209 13.6219C120.918 14.8404 121.421 15.8632 121.715 16.687C122.046 17.6941 121.559 18.1977 120.249 18.1977H117.099C116.399 18.1977 116.031 18.005 115.993 17.6195C115.956 17.3615 115.937 16.9885 115.937 16.4911H112.731L112.759 18.2786C112.797 19.3604 113.272 20.2681 114.181 21.0017C115.093 21.7353 116.268 22.1021 117.706 22.1021H119.777C121.84 22.1021 123.352 21.4929 124.308 20.2743C125.271 19.0557 125.53 17.5574 125.086 15.7792Z"
    fill="white"
  />
  <path
    d="M159.159 4.0101C155.944 1.3367 151.163 0 144.823 0H142.776C138.351 0 134.764 3.56868 134.764 7.97047V24.0295C134.764 28.4313 138.351 32 142.776 32H146.726C150.079 32 153.06 31.3379 155.672 30.0167C158.284 28.6955 160.322 26.8148 161.787 24.3839C163.253 21.9499 163.984 19.1273 163.984 15.9099C163.984 10.6501 162.378 6.68661 159.159 4.0101ZM148.807 25.503C143.463 25.503 139.129 21.1914 139.129 15.8757C139.129 10.5599 143.46 6.2483 148.807 6.2483C154.15 6.2483 158.484 10.5599 158.484 15.8757C158.484 21.1914 154.15 25.503 148.807 25.503Z"
    fill="white"
  />
  <path
    d="M148.807 20.0537C151.057 20.0537 152.881 18.2388 152.881 16C152.881 13.7613 151.057 11.9464 148.807 11.9464C146.556 11.9464 144.732 13.7613 144.732 16C144.732 18.2388 146.556 20.0537 148.807 20.0537Z"
    fill="white"
  />
</svg>
