<svg width="6" height="9" viewBox="0 0 6 9" fill="none" xmlns="http://www.w3.org/2000/svg">
<path d="M2.1019 4.72341L4.8727 2.06841C5.01848 1.92789 5.10031 1.7378 5.10031 1.53966C5.10031 1.34152 5.01848 1.15143 4.8727 1.01091C4.79994 0.940615 4.71337 0.884819 4.61799 0.846743C4.52261 0.808666 4.4203 0.789062 4.31698 0.789062C4.21365 0.789062 4.11134 0.808666 4.01596 0.846743C3.92058 0.884819 3.83401 0.940615 3.76125 1.01091L0.442554 4.19091C0.369191 4.26063 0.310962 4.34358 0.271225 4.43498C0.231488 4.52637 0.211029 4.6244 0.211029 4.72341C0.211029 4.82242 0.231488 4.92045 0.271225 5.01184C0.310962 5.10324 0.369191 5.18619 0.442554 5.25591L3.76125 8.47341C3.83439 8.54292 3.92112 8.59792 4.01649 8.63524C4.11185 8.67256 4.21397 8.69148 4.31698 8.69091C4.41999 8.69148 4.5221 8.67256 4.61746 8.63524C4.71283 8.59792 4.79956 8.54292 4.8727 8.47341C5.01848 8.33289 5.10031 8.1428 5.10031 7.94466C5.10031 7.74652 5.01848 7.55643 4.8727 7.41591L2.1019 4.72341Z" fill="#7D7D7D"/>
</svg>
