<svg width="24" height="24" viewBox="0 0 24 24" fill="none" xmlns="http://www.w3.org/2000/svg">
<path d="M23.245 23.996C23.045 23.996 22.856 23.918 22.715 23.776L16.2 17.26C15.439 17.911 14.582 18.442 13.647 18.839C12.418 19.361 11.127 19.626 9.80996 19.626C8.55296 19.626 7.31796 19.385 6.13696 18.908C3.70596 17.927 1.80296 16.059 0.777962 13.646C-0.247038 11.234 -0.272038 8.56599 0.708962 6.13599C1.68996 3.70599 3.55796 1.80199 5.96996 0.77699C7.19896 0.25399 8.48896 -0.0100098 9.80696 -0.0100098C11.064 -0.0100098 12.299 0.23199 13.48 0.70799C15.911 1.68899 17.814 3.55699 18.839 5.96999C19.864 8.38299 19.889 11.05 18.908 13.48C18.506 14.476 17.952 15.389 17.259 16.198L23.776 22.716C24.068 23.008 24.068 23.484 23.776 23.777C23.634 23.918 23.445 23.996 23.245 23.996ZM9.80696 1.48999C8.69196 1.48999 7.59796 1.71399 6.55696 2.15699C4.51296 3.02599 2.92996 4.63799 2.09896 6.69699C1.26796 8.75599 1.28896 11.015 2.15696 13.059C3.02596 15.103 4.63796 16.686 6.69696 17.517C7.69796 17.921 8.74496 18.125 9.80896 18.125C10.924 18.125 12.018 17.901 13.059 17.458C14.033 17.044 14.906 16.46 15.653 15.722C15.663 15.708 15.674 15.696 15.685 15.685C15.701 15.669 15.716 15.656 15.73 15.646C16.493 14.875 17.099 13.953 17.516 12.918C18.347 10.859 18.326 8.59999 17.457 6.55599C16.589 4.51199 14.976 2.92899 12.917 2.09799C11.918 1.69499 10.871 1.48999 9.80696 1.48999Z" fill="#7D7D7D"/>
</svg>
