<svg width="23" height="20" viewBox="0 0 23 20" fill="none" xmlns="http://www.w3.org/2000/svg">
<path fill-rule="evenodd" clip-rule="evenodd" d="M8.83715 0.919359C9.08875 1.13501 9.11789 1.51379 8.90223 1.76539L5.25121 6.02491H17.6421L13.9911 1.76539C13.7755 1.51379 13.8046 1.13501 14.0562 0.919359C14.3078 0.703706 14.6866 0.732843 14.9022 0.984438L19.2226 6.02491H20.5207C20.5276 6.02491 20.5345 6.02503 20.5414 6.02527C20.8544 6.0361 21.1609 6.11733 21.4382 6.26292C21.7155 6.40852 21.9564 6.61475 22.143 6.86626C22.3296 7.11778 22.4572 7.40812 22.5161 7.71571C22.5745 8.02048 22.5642 8.33441 22.4858 8.63459L20.3507 17.6224C20.2522 18.0694 20.0064 18.4705 19.6526 18.7611C19.2971 19.0531 18.8535 19.2165 18.3936 19.2248L18.3827 19.225L4.49977 19.2249C4.03985 19.2166 3.59623 19.0531 3.24078 18.7611C2.88696 18.4705 2.64114 18.0694 2.54268 17.6224L0.407595 8.63462C0.329197 8.33444 0.318806 8.02049 0.377226 7.71571C0.436184 7.40812 0.56371 7.11778 0.750323 6.86626C0.936937 6.61475 1.17784 6.40852 1.45512 6.26292C1.73241 6.11733 2.03894 6.0361 2.35194 6.02527C2.35885 6.02503 2.36576 6.02491 2.37268 6.02491H3.67072L7.99112 0.984438C8.20678 0.732843 8.58556 0.703706 8.83715 0.919359ZM3.94275 7.22491H2.38439C2.25476 7.23072 2.12795 7.265 2.013 7.32536C1.89538 7.38712 1.79319 7.4746 1.71403 7.58129C1.63487 7.68798 1.58078 7.81114 1.55577 7.94161C1.53076 8.07209 1.53548 8.20652 1.56958 8.33492L1.57343 8.35024L3.71415 17.3617C3.75437 17.547 3.85588 17.7134 4.00245 17.8338C4.1478 17.9532 4.3289 18.0204 4.51686 18.0249H18.3765C18.5645 18.0204 18.7456 17.9532 18.8909 17.8338C19.0375 17.7134 19.1391 17.5471 19.1793 17.3617L19.1818 17.3502L21.3199 8.35024L21.3238 8.33492C21.3579 8.20652 21.3626 8.07209 21.3376 7.94161C21.3126 7.81114 21.2585 7.68798 21.1793 7.58129C21.1002 7.4746 20.998 7.38712 20.8804 7.32536C20.7654 7.265 20.6386 7.23072 20.509 7.22491H18.9506C18.9482 7.22493 18.9457 7.22493 18.9433 7.22491H3.95005C3.94762 7.22493 3.94518 7.22493 3.94275 7.22491Z" fill="#7D7D7D"/>
</svg>
