<svg width="13" height="13" viewBox="0 0 13 13" fill="none" xmlns="http://www.w3.org/2000/svg">
<path d="M12.3402 5.52976C12.3981 5.21533 12.1667 4.83801 11.8774 4.83801L8.57997 4.33491L7.07587 1.0648C7.01802 0.939024 6.96017 0.876138 6.84447 0.813251C6.55521 0.62459 6.20811 0.750364 6.03456 1.0648L4.58831 4.33491L1.29085 4.83801C1.1173 4.83801 1.0016 4.90089 0.943753 5.02667C0.712353 5.27821 0.712353 5.65553 0.943753 5.90708L3.31561 8.42255L2.73711 12.0071C2.73711 12.1329 2.73711 12.2586 2.79496 12.3844C2.96851 12.6989 3.31561 12.8246 3.60486 12.636L6.55521 10.938L9.50557 12.636C9.56342 12.6989 9.67912 12.6989 9.79482 12.6989C9.85267 12.6989 9.85267 12.6989 9.91052 12.6989C10.1998 12.636 10.4312 12.3215 10.3733 11.9442L9.79482 8.35967L12.1667 5.84419C12.2824 5.78131 12.3402 5.65553 12.3402 5.52976Z" fill="#DF3856"/>
</svg>
