<svg width="19" height="19" viewBox="0 0 19 19" fill="none" xmlns="http://www.w3.org/2000/svg">
<path d="M2.85735 15.2919C2.41914 15.2919 2.04754 15.2367 1.74255 15.1262C1.43756 15.019 1.18866 14.8695 0.995845 14.6778C0.803034 14.4861 0.662807 14.2602 0.575165 14.0003C0.49103 13.7371 0.448962 13.4527 0.448962 13.1473C0.448962 12.9913 0.452468 12.7979 0.459479 12.5672C0.46649 12.3333 0.469996 12.0636 0.469996 11.7581C0.469996 11.4526 0.468243 11.1179 0.464737 10.754C0.461232 10.3868 0.450714 10.0196 0.433186 9.65241C0.419164 9.28521 0.396377 8.93264 0.364826 8.59469C0.336781 8.25674 0.296466 7.96266 0.243881 7.71245L1.81617 7.26889C1.86174 7.48336 1.89855 7.73682 1.9266 8.02928C1.95815 8.31848 1.98269 8.62231 2.00022 8.94077C2.01774 9.25922 2.03001 9.5793 2.03703 9.901C2.04754 10.2227 2.05455 10.5217 2.05806 10.7979C2.06157 11.0416 2.05631 11.2983 2.04228 11.568C2.03177 11.8345 2.023 12.0912 2.01599 12.3381C2.00898 12.5818 2.01073 12.8028 2.02125 13.001C2.03527 13.1993 2.06858 13.3504 2.12116 13.4543C2.15271 13.5291 2.19127 13.5859 2.23685 13.6249C2.28593 13.6639 2.34202 13.6932 2.40512 13.7127C2.46822 13.7322 2.53658 13.7436 2.6102 13.7468C2.68733 13.75 2.77146 13.7517 2.86261 13.7517H3.00459V15.2919H2.85735Z" fill="#535353"/>
<path d="M7.35553 15.2773C7.1452 15.2773 6.92785 15.2562 6.70348 15.214C6.47912 15.175 6.25826 15.1213 6.04091 15.0531C5.82707 14.9849 5.62023 14.9069 5.42041 14.8191C5.22409 14.7282 5.04881 14.6355 4.89456 14.5413C4.77888 14.6843 4.65442 14.8045 4.52121 14.902C4.3915 14.9962 4.25127 15.0726 4.10053 15.1311C3.95329 15.1896 3.79203 15.2302 3.61675 15.2529C3.44497 15.2789 3.25917 15.2919 3.05935 15.2919H2.79642V13.7517H3.05935C3.29072 13.7517 3.48529 13.7078 3.64304 13.6201C3.8008 13.5323 3.93576 13.4202 4.04795 13.2837C4.16013 13.144 4.25829 12.9913 4.34242 12.8256C4.43006 12.6566 4.51946 12.4925 4.6106 12.3333C4.71577 12.135 4.83321 11.9368 4.96292 11.7386C5.09614 11.5404 5.24863 11.3617 5.42041 11.2024C5.59219 11.0432 5.785 10.9148 5.99884 10.8174C6.2162 10.7166 6.45984 10.6663 6.72977 10.6663C7.09787 10.6663 7.41338 10.7459 7.6763 10.9051C7.94273 11.0611 8.16184 11.2674 8.33361 11.5241C8.50539 11.7776 8.63159 12.0668 8.71222 12.3918C8.79636 12.7135 8.83843 13.0384 8.83843 13.3666C8.83843 13.6428 8.79461 13.8979 8.70697 14.1319C8.61932 14.3658 8.50539 14.5673 8.36516 14.7363C8.22494 14.9053 8.06543 15.0369 7.88664 15.1311C7.71136 15.2286 7.53432 15.2773 7.35553 15.2773ZM6.68245 12.1529C6.58078 12.1529 6.48613 12.1903 6.39849 12.265C6.31085 12.3365 6.22847 12.4259 6.15134 12.5331C6.07422 12.6403 6.0041 12.7573 5.941 12.8841C5.88141 13.0108 5.82707 13.1278 5.77799 13.235C5.89368 13.3032 6.02514 13.3666 6.17238 13.4251C6.31961 13.4836 6.47211 13.5356 6.62986 13.5811C6.78762 13.6233 6.94713 13.6591 7.10839 13.6883C7.26965 13.7176 7.42389 13.7387 7.57113 13.7517C7.58866 13.5535 7.57814 13.3585 7.53958 13.1668C7.50102 12.975 7.43967 12.8044 7.35553 12.655C7.2749 12.5055 7.17675 12.3853 7.06106 12.2943C6.94537 12.2 6.81917 12.1529 6.68245 12.1529Z" fill="#535353"/>
<path d="M9.17877 17.227C9.67307 17.136 10.1235 17.0207 10.5302 16.881C10.9369 16.7445 11.2927 16.5901 11.5977 16.4179C11.9062 16.2489 12.1603 16.0686 12.3602 15.8769C12.5635 15.6851 12.7072 15.4902 12.7914 15.2919C12.6406 15.2919 12.4811 15.2887 12.3128 15.2822C12.1446 15.2789 12.0061 15.2741 11.8974 15.2676C11.5503 15.2416 11.2348 15.1798 10.9509 15.0824C10.6669 14.9881 10.4215 14.8581 10.2147 14.6924C10.0114 14.5234 9.85361 14.3187 9.74143 14.0783C9.62925 13.8378 9.57316 13.5616 9.57316 13.2496C9.57316 13.0514 9.59595 12.8483 9.64152 12.6403C9.68709 12.4324 9.75195 12.2293 9.83608 12.0311C9.92372 11.8328 10.0306 11.646 10.1568 11.4705C10.2866 11.295 10.432 11.1407 10.5933 11.0075C10.7546 10.8742 10.9316 10.7702 11.1244 10.6955C11.3207 10.6175 11.5311 10.5785 11.7554 10.5785C12.0219 10.5785 12.2673 10.624 12.4916 10.715C12.716 10.8027 12.9211 10.923 13.1069 11.0757C13.2962 11.2284 13.4627 11.4088 13.6064 11.6167C13.7537 11.8215 13.8799 12.0424 13.985 12.2796C14.0937 12.5136 14.1813 12.7573 14.248 13.0108C14.3181 13.261 14.3671 13.508 14.3952 13.7517H14.6213V15.2919H14.2848C14.148 15.7696 13.9289 16.2018 13.6275 16.5885C13.3295 16.9784 12.9719 17.318 12.5547 17.6072C12.1375 17.8964 11.673 18.1353 11.1612 18.3237C10.6529 18.5122 10.1218 18.6454 9.5679 18.7234L9.17877 17.227ZM11.7554 12.1237C11.6818 12.1107 11.5977 12.135 11.503 12.1968C11.4084 12.2553 11.3207 12.3365 11.2401 12.4405C11.1595 12.5412 11.0911 12.6533 11.035 12.7768C10.9789 12.9003 10.9526 13.0189 10.9561 13.1326C10.9596 13.2431 10.9982 13.3341 11.0718 13.4056C11.1454 13.4771 11.2401 13.5372 11.3558 13.5859C11.4715 13.6314 11.6012 13.6656 11.7449 13.6883C11.8922 13.7111 12.0376 13.7273 12.1814 13.7371C12.3251 13.7468 12.4601 13.7517 12.5863 13.7517H12.9123C12.8597 13.5502 12.7966 13.3569 12.723 13.1716C12.6529 12.9864 12.5705 12.8207 12.4758 12.6745C12.3812 12.5282 12.2743 12.4064 12.1551 12.3089C12.0359 12.2114 11.9027 12.1497 11.7554 12.1237Z" fill="#535353"/>
<path d="M14.4067 13.7517H15.6687C15.8195 13.7517 15.986 13.7452 16.1683 13.7322C16.3506 13.7159 16.5206 13.6851 16.6784 13.6396C16.8396 13.5941 16.9728 13.5275 17.078 13.4397C17.1867 13.3487 17.241 13.2301 17.241 13.0839C17.241 13.0059 17.2147 12.8906 17.1621 12.7378C17.1131 12.5818 17.0465 12.4096 16.9623 12.2212C16.8817 12.0294 16.7888 11.8296 16.6836 11.6216C16.582 11.4136 16.4803 11.2154 16.3786 11.027L17.8826 10.3348C17.9807 10.5395 18.0771 10.7572 18.1718 10.988C18.2699 11.2187 18.3576 11.4526 18.4347 11.6899C18.5118 11.9271 18.5732 12.1643 18.6187 12.4015C18.6678 12.6355 18.6924 12.8597 18.6924 13.0742C18.6924 13.4771 18.6117 13.8199 18.4505 14.1026C18.2927 14.3821 18.0771 14.6112 17.8037 14.7899C17.5302 14.9654 17.2095 15.0921 16.8414 15.1701C16.4733 15.2513 16.0789 15.2919 15.6582 15.2919H14.4067V13.7517ZM16.8571 8.7263L15.8686 9.64266L14.8484 8.70193L15.858 7.76119L16.8571 8.6873L17.8457 7.77094L18.8659 8.71168L17.8563 9.65241L16.8571 8.7263Z" fill="#535353"/>
<path d="M7.01824 8.90527C6.42654 8.90527 5.88816 8.83241 5.4031 8.68669C4.91804 8.54097 4.50179 8.32239 4.15434 8.03095C3.81032 7.74282 3.54199 7.38184 3.34935 6.94799C3.16014 6.51746 3.06554 6.01572 3.06554 5.44277C3.06554 4.89301 3.15498 4.34491 3.33387 3.79846C3.51619 3.25201 3.78452 2.71716 4.13886 2.19389L5.2999 2.99866C5.2311 3.08808 5.15025 3.22221 5.05737 3.40105C4.96449 3.57988 4.87504 3.78356 4.78904 4.01207C4.70304 4.24059 4.63079 4.48401 4.57231 4.74233C4.51383 4.99734 4.48459 5.24407 4.48459 5.48252C4.48459 5.7574 4.54823 6.00578 4.67552 6.22767C4.80624 6.44956 4.97825 6.63999 5.19153 6.79896C5.40826 6.95793 5.65595 7.08212 5.9346 7.17154C6.21669 7.26096 6.5091 7.30898 6.81183 7.3156C7.17649 7.32223 7.52738 7.27586 7.86451 7.17651C8.20164 7.08046 8.49577 6.94302 8.7469 6.76418C9.00147 6.58866 9.201 6.37836 9.34549 6.13329C9.48997 5.89152 9.55533 5.62824 9.54157 5.34342C9.53469 5.20101 9.50717 5.04039 9.45901 4.86155C9.41085 4.68272 9.35237 4.50056 9.28356 4.3151C9.2182 4.12633 9.14424 3.94087 9.06167 3.75872C8.98255 3.57326 8.90687 3.40436 8.83463 3.25201C8.76582 3.09967 8.70562 2.96885 8.65402 2.85957C8.60242 2.75028 8.56974 2.67576 8.55598 2.63602L9.95955 1.88589C9.97331 1.89914 10.0077 1.96372 10.0628 2.07963C10.1178 2.19555 10.1814 2.34624 10.2537 2.5317C10.3294 2.71385 10.4085 2.92249 10.491 3.15763C10.5771 3.39277 10.6545 3.63618 10.7233 3.88788C10.7921 4.13958 10.8488 4.38962 10.8935 4.63801C10.9417 4.88639 10.9658 5.11491 10.9658 5.32355C10.9658 5.6183 10.9314 5.91139 10.8626 6.20283C10.7938 6.49427 10.6871 6.77246 10.5426 7.03741C10.4016 7.30567 10.2227 7.55239 10.006 7.7776C9.7927 8.00611 9.53985 8.20317 9.24744 8.36876C8.95503 8.53766 8.62306 8.66847 8.25153 8.7612C7.87999 8.85725 7.4689 8.90527 7.01824 8.90527ZM7.05436 2.92911L5.9088 1.82628L7.05436 0.72345L8.19992 1.82628L7.05436 2.92911Z" fill="#535353"/>
</svg>
